{"title":"Queen of the South S01E11 720p AMZN WEBRip HEVC 2CH x265","uid":15747293,"size":324923116,"categoryP":"video","categoryS":"hd___tv_shows","magnet":"?xt=urn:btih:dd922c9044e0c12ab1c957102475e261d606eb73&amp;dn=Queen+of+the+South+S01E11+720p+AMZN+WEBRip+HEVC+2CH+x265&amp;tr=udp%3A%2F%2Ftracker.leechers-paradise.org%3A6969&amp;tr=udp%3A%2F%2Fzer0day.ch%3A1337&amp;tr=udp%3A%2F%2Fopen.demonii.com%3A1337&amp;tr=udp%3A%2F%2Ftracker.coppersurfer.tk%3A6969&amp;tr=udp%3A%2F%2Fexodus.desync.com%3A6969","seeders":1,"leechers":0,"uploader":"nayhtut","files":1,"time":1472985506,"description":"Source:  Queen of the South S01E11 1080p AMZN WEBRip DD5.1 x264-CasStudio (2.72 GB)\n\n\nComplete name                            : Queen.of.the.South.S01E11.720p.AMZN.WEBRip.HEVC.2CH.x265.mkv\nFormat                                   : Matroska\nFormat version                           : Version 4 / Version 2\nFile size                                : 310 MiB\nDuration                                 : 41mn 9s\nOverall bit rate                         : 1 052 Kbps\nWriting application                      : Lavf57.25.100\nWriting library                          : Lavf57.25.100\n\nVideo\n\nID                                       : 1\nFormat                                   : V_MPEGH/ISO/HEVC\nCodec ID                                 : V_MPEGH/ISO/HEVC\nDuration                                 : 41mn 9s\nBit rate                                 : 840 Kbps\nWidth                                    : 1 280 pixels\nHeight                                   : 720 pixels\nDisplay aspect ratio                     : 16:9\nFrame rate                               : 25.000 fps\nBits/(Pixel*Frame)                       : 0.037\nStream size                              : 247 MiB (80%)\nWriting library                          : Lavc57.48.101 libx265\nLanguage                                 : English\nDefault                                  : Yes\nForced                                   : No\nDURATION                                 : 00:41:09.811000000\n\nAudio\n\nID                                       : 2\nFormat                                   : AC-3\nFormat/Info                              : Audio Coding 3\nMode extension                           : CM (complete main)\nFormat settings, Endianness              : Big\nCodec ID                                 : A_AC3\nDuration                                 : 41mn 9s\nBit rate mode                            : Constant\nBit rate                                 : 192 Kbps\nChannel(s)                               : 2 channels\nChannel positions                        : Front: L R\nSampling rate                            : 48.0 KHz\nBit depth                                : 16 bits\nCompression mode                         : Lossy\nStream size                              : 56.5 MiB (18%)\nWriting library                          : Lavc57.24.102 ac3\nLanguage                                 : English\nDefault                                  : Yes\nForced                                   : No\nDURATION                                 : 00:41:09.791000000\n\nText\n\nID                                       : 3\nFormat                                   : ASS\nCodec ID                                 : S_TEXT/ASS\nCodec ID/Info                            : Advanced Sub Station Alpha\nCompression mode                         : Lossless\nWriting library                          : Lavc57.48.101 ssa\nLanguage                                 : English\nDefault                                  : No\nForced                                   : No\nDURATION                                 : 00:40:11.360000000","torrent":{"xt":"urn:btih:dd922c9044e0c12ab1c957102475e261d606eb73","amp;dn":"Queen+of+the+South+S01E11+720p+AMZN+WEBRip+HEVC+2CH+x265","amp;tr":["udp%3A%2F%2Ftracker.leechers-paradise.org%3A6969","udp%3A%2F%2Fzer0day.ch%3A1337","udp%3A%2F%2Fopen.demonii.com%3A1337","udp%3A%2F%2Ftracker.coppersurfer.tk%3A6969","udp%3A%2F%2Fexodus.desync.com%3A6969"],"infoHash":"dd922c9044e0c12ab1c957102475e261d606eb73","infoHashBuffer":{"type":"Buffer","data":[221,146,44,144,68,224,193,42,177,201,87,16,36,117,226,97,214,6,235,115]},"announce":[],"urlList":[]}}